%TF.GenerationSoftware,KiCad,Pcbnew,8.0.0*%
%TF.CreationDate,2024-11-24T15:26:49+01:00*%
%TF.ProjectId,HHID-v2,48484944-2d76-4322-9e6b-696361645f70,rev?*%
%TF.SameCoordinates,PX89013e0PY67486e0*%
%TF.FileFunction,AssemblyDrawing,Bot*%
%FSLAX46Y46*%
G04 Gerber Fmt 4.6, Leading zero omitted, Abs format (unit mm)*
G04 Created by KiCad (PCBNEW 8.0.0) date 2024-11-24 15:26:49*
%MOMM*%
%LPD*%
G01*
G04 APERTURE LIST*
%ADD10C,0.150000*%
%ADD11C,0.120000*%
%ADD12C,0.075000*%
%ADD13C,0.040000*%
%ADD14C,0.100000*%
G04 APERTURE END LIST*
D10*
X1145514Y7291542D02*
X1145514Y7491542D01*
X831228Y7577256D02*
X831228Y7291542D01*
X831228Y7291542D02*
X1431228Y7291542D01*
X1431228Y7291542D02*
X1431228Y7577256D01*
X888371Y4934399D02*
X859800Y4905827D01*
X859800Y4905827D02*
X831228Y4820113D01*
X831228Y4820113D02*
X831228Y4762970D01*
X831228Y4762970D02*
X859800Y4677256D01*
X859800Y4677256D02*
X916942Y4620113D01*
X916942Y4620113D02*
X974085Y4591542D01*
X974085Y4591542D02*
X1088371Y4562970D01*
X1088371Y4562970D02*
X1174085Y4562970D01*
X1174085Y4562970D02*
X1288371Y4591542D01*
X1288371Y4591542D02*
X1345514Y4620113D01*
X1345514Y4620113D02*
X1402657Y4677256D01*
X1402657Y4677256D02*
X1431228Y4762970D01*
X1431228Y4762970D02*
X1431228Y4820113D01*
X1431228Y4820113D02*
X1402657Y4905827D01*
X1402657Y4905827D02*
X1374085Y4934399D01*
D11*
X1226190Y5609955D02*
X1302380Y5648050D01*
X1302380Y5648050D02*
X1378571Y5724240D01*
X1378571Y5724240D02*
X1492857Y5838526D01*
X1492857Y5838526D02*
X1569047Y5876621D01*
X1569047Y5876621D02*
X1645238Y5876621D01*
X1607142Y5686145D02*
X1683333Y5724240D01*
X1683333Y5724240D02*
X1759523Y5800431D01*
X1759523Y5800431D02*
X1797619Y5952812D01*
X1797619Y5952812D02*
X1797619Y6219479D01*
X1797619Y6219479D02*
X1759523Y6371860D01*
X1759523Y6371860D02*
X1683333Y6448050D01*
X1683333Y6448050D02*
X1607142Y6486145D01*
X1607142Y6486145D02*
X1454761Y6486145D01*
X1454761Y6486145D02*
X1378571Y6448050D01*
X1378571Y6448050D02*
X1302380Y6371860D01*
X1302380Y6371860D02*
X1264285Y6219479D01*
X1264285Y6219479D02*
X1264285Y5952812D01*
X1264285Y5952812D02*
X1302380Y5800431D01*
X1302380Y5800431D02*
X1378571Y5724240D01*
X1378571Y5724240D02*
X1454761Y5686145D01*
X1454761Y5686145D02*
X1607142Y5686145D01*
X997619Y6486145D02*
X502381Y6486145D01*
X502381Y6486145D02*
X769047Y6181383D01*
X769047Y6181383D02*
X654762Y6181383D01*
X654762Y6181383D02*
X578571Y6143288D01*
X578571Y6143288D02*
X540476Y6105193D01*
X540476Y6105193D02*
X502381Y6029002D01*
X502381Y6029002D02*
X502381Y5838526D01*
X502381Y5838526D02*
X540476Y5762336D01*
X540476Y5762336D02*
X578571Y5724240D01*
X578571Y5724240D02*
X654762Y5686145D01*
X654762Y5686145D02*
X883333Y5686145D01*
X883333Y5686145D02*
X959524Y5724240D01*
X959524Y5724240D02*
X997619Y5762336D01*
D10*
X1154485Y908459D02*
X1154485Y708459D01*
X1468771Y622745D02*
X1468771Y908459D01*
X1468771Y908459D02*
X868771Y908459D01*
X868771Y908459D02*
X868771Y622745D01*
X1411628Y3265602D02*
X1440200Y3294174D01*
X1440200Y3294174D02*
X1468771Y3379888D01*
X1468771Y3379888D02*
X1468771Y3437031D01*
X1468771Y3437031D02*
X1440200Y3522745D01*
X1440200Y3522745D02*
X1383057Y3579888D01*
X1383057Y3579888D02*
X1325914Y3608459D01*
X1325914Y3608459D02*
X1211628Y3637031D01*
X1211628Y3637031D02*
X1125914Y3637031D01*
X1125914Y3637031D02*
X1011628Y3608459D01*
X1011628Y3608459D02*
X954485Y3579888D01*
X954485Y3579888D02*
X897342Y3522745D01*
X897342Y3522745D02*
X868771Y3437031D01*
X868771Y3437031D02*
X868771Y3379888D01*
X868771Y3379888D02*
X897342Y3294174D01*
X897342Y3294174D02*
X925914Y3265602D01*
D11*
X1251190Y1709955D02*
X1327380Y1748050D01*
X1327380Y1748050D02*
X1403571Y1824240D01*
X1403571Y1824240D02*
X1517857Y1938526D01*
X1517857Y1938526D02*
X1594047Y1976621D01*
X1594047Y1976621D02*
X1670238Y1976621D01*
X1632142Y1786145D02*
X1708333Y1824240D01*
X1708333Y1824240D02*
X1784523Y1900431D01*
X1784523Y1900431D02*
X1822619Y2052812D01*
X1822619Y2052812D02*
X1822619Y2319479D01*
X1822619Y2319479D02*
X1784523Y2471860D01*
X1784523Y2471860D02*
X1708333Y2548050D01*
X1708333Y2548050D02*
X1632142Y2586145D01*
X1632142Y2586145D02*
X1479761Y2586145D01*
X1479761Y2586145D02*
X1403571Y2548050D01*
X1403571Y2548050D02*
X1327380Y2471860D01*
X1327380Y2471860D02*
X1289285Y2319479D01*
X1289285Y2319479D02*
X1289285Y2052812D01*
X1289285Y2052812D02*
X1327380Y1900431D01*
X1327380Y1900431D02*
X1403571Y1824240D01*
X1403571Y1824240D02*
X1479761Y1786145D01*
X1479761Y1786145D02*
X1632142Y1786145D01*
X984524Y2509955D02*
X946428Y2548050D01*
X946428Y2548050D02*
X870238Y2586145D01*
X870238Y2586145D02*
X679762Y2586145D01*
X679762Y2586145D02*
X603571Y2548050D01*
X603571Y2548050D02*
X565476Y2509955D01*
X565476Y2509955D02*
X527381Y2433764D01*
X527381Y2433764D02*
X527381Y2357574D01*
X527381Y2357574D02*
X565476Y2243288D01*
X565476Y2243288D02*
X1022619Y1786145D01*
X1022619Y1786145D02*
X527381Y1786145D01*
D10*
X10954485Y908459D02*
X10954485Y708459D01*
X11268771Y622745D02*
X11268771Y908459D01*
X11268771Y908459D02*
X10668771Y908459D01*
X10668771Y908459D02*
X10668771Y622745D01*
X11211628Y3265602D02*
X11240200Y3294174D01*
X11240200Y3294174D02*
X11268771Y3379888D01*
X11268771Y3379888D02*
X11268771Y3437031D01*
X11268771Y3437031D02*
X11240200Y3522745D01*
X11240200Y3522745D02*
X11183057Y3579888D01*
X11183057Y3579888D02*
X11125914Y3608459D01*
X11125914Y3608459D02*
X11011628Y3637031D01*
X11011628Y3637031D02*
X10925914Y3637031D01*
X10925914Y3637031D02*
X10811628Y3608459D01*
X10811628Y3608459D02*
X10754485Y3579888D01*
X10754485Y3579888D02*
X10697342Y3522745D01*
X10697342Y3522745D02*
X10668771Y3437031D01*
X10668771Y3437031D02*
X10668771Y3379888D01*
X10668771Y3379888D02*
X10697342Y3294174D01*
X10697342Y3294174D02*
X10725914Y3265602D01*
D11*
X11001190Y1684955D02*
X11077380Y1723050D01*
X11077380Y1723050D02*
X11153571Y1799240D01*
X11153571Y1799240D02*
X11267857Y1913526D01*
X11267857Y1913526D02*
X11344047Y1951621D01*
X11344047Y1951621D02*
X11420238Y1951621D01*
X11382142Y1761145D02*
X11458333Y1799240D01*
X11458333Y1799240D02*
X11534523Y1875431D01*
X11534523Y1875431D02*
X11572619Y2027812D01*
X11572619Y2027812D02*
X11572619Y2294479D01*
X11572619Y2294479D02*
X11534523Y2446860D01*
X11534523Y2446860D02*
X11458333Y2523050D01*
X11458333Y2523050D02*
X11382142Y2561145D01*
X11382142Y2561145D02*
X11229761Y2561145D01*
X11229761Y2561145D02*
X11153571Y2523050D01*
X11153571Y2523050D02*
X11077380Y2446860D01*
X11077380Y2446860D02*
X11039285Y2294479D01*
X11039285Y2294479D02*
X11039285Y2027812D01*
X11039285Y2027812D02*
X11077380Y1875431D01*
X11077380Y1875431D02*
X11153571Y1799240D01*
X11153571Y1799240D02*
X11229761Y1761145D01*
X11229761Y1761145D02*
X11382142Y1761145D01*
X10277381Y1761145D02*
X10734524Y1761145D01*
X10505952Y1761145D02*
X10505952Y2561145D01*
X10505952Y2561145D02*
X10582143Y2446860D01*
X10582143Y2446860D02*
X10658333Y2370669D01*
X10658333Y2370669D02*
X10734524Y2332574D01*
D10*
X10945514Y7291542D02*
X10945514Y7491542D01*
X10631228Y7577256D02*
X10631228Y7291542D01*
X10631228Y7291542D02*
X11231228Y7291542D01*
X11231228Y7291542D02*
X11231228Y7577256D01*
X10688371Y4934399D02*
X10659800Y4905827D01*
X10659800Y4905827D02*
X10631228Y4820113D01*
X10631228Y4820113D02*
X10631228Y4762970D01*
X10631228Y4762970D02*
X10659800Y4677256D01*
X10659800Y4677256D02*
X10716942Y4620113D01*
X10716942Y4620113D02*
X10774085Y4591542D01*
X10774085Y4591542D02*
X10888371Y4562970D01*
X10888371Y4562970D02*
X10974085Y4562970D01*
X10974085Y4562970D02*
X11088371Y4591542D01*
X11088371Y4591542D02*
X11145514Y4620113D01*
X11145514Y4620113D02*
X11202657Y4677256D01*
X11202657Y4677256D02*
X11231228Y4762970D01*
X11231228Y4762970D02*
X11231228Y4820113D01*
X11231228Y4820113D02*
X11202657Y4905827D01*
X11202657Y4905827D02*
X11174085Y4934399D01*
D11*
X11051190Y5509955D02*
X11127380Y5548050D01*
X11127380Y5548050D02*
X11203571Y5624240D01*
X11203571Y5624240D02*
X11317857Y5738526D01*
X11317857Y5738526D02*
X11394047Y5776621D01*
X11394047Y5776621D02*
X11470238Y5776621D01*
X11432142Y5586145D02*
X11508333Y5624240D01*
X11508333Y5624240D02*
X11584523Y5700431D01*
X11584523Y5700431D02*
X11622619Y5852812D01*
X11622619Y5852812D02*
X11622619Y6119479D01*
X11622619Y6119479D02*
X11584523Y6271860D01*
X11584523Y6271860D02*
X11508333Y6348050D01*
X11508333Y6348050D02*
X11432142Y6386145D01*
X11432142Y6386145D02*
X11279761Y6386145D01*
X11279761Y6386145D02*
X11203571Y6348050D01*
X11203571Y6348050D02*
X11127380Y6271860D01*
X11127380Y6271860D02*
X11089285Y6119479D01*
X11089285Y6119479D02*
X11089285Y5852812D01*
X11089285Y5852812D02*
X11127380Y5700431D01*
X11127380Y5700431D02*
X11203571Y5624240D01*
X11203571Y5624240D02*
X11279761Y5586145D01*
X11279761Y5586145D02*
X11432142Y5586145D01*
X10403571Y6119479D02*
X10403571Y5586145D01*
X10594047Y6424240D02*
X10784524Y5852812D01*
X10784524Y5852812D02*
X10289285Y5852812D01*
D12*
X2602409Y5390953D02*
X3007171Y5390953D01*
X3007171Y5390953D02*
X3054790Y5367143D01*
X3054790Y5367143D02*
X3078600Y5343334D01*
X3078600Y5343334D02*
X3102409Y5295715D01*
X3102409Y5295715D02*
X3102409Y5200477D01*
X3102409Y5200477D02*
X3078600Y5152858D01*
X3078600Y5152858D02*
X3054790Y5129048D01*
X3054790Y5129048D02*
X3007171Y5105239D01*
X3007171Y5105239D02*
X2602409Y5105239D01*
X2650028Y4890952D02*
X2626219Y4867143D01*
X2626219Y4867143D02*
X2602409Y4819524D01*
X2602409Y4819524D02*
X2602409Y4700476D01*
X2602409Y4700476D02*
X2626219Y4652857D01*
X2626219Y4652857D02*
X2650028Y4629048D01*
X2650028Y4629048D02*
X2697647Y4605238D01*
X2697647Y4605238D02*
X2745266Y4605238D01*
X2745266Y4605238D02*
X2816695Y4629048D01*
X2816695Y4629048D02*
X3102409Y4914762D01*
X3102409Y4914762D02*
X3102409Y4605238D01*
D13*
X3264765Y3261667D02*
X3276670Y3273571D01*
X3276670Y3273571D02*
X3288574Y3309286D01*
X3288574Y3309286D02*
X3288574Y3333095D01*
X3288574Y3333095D02*
X3276670Y3368809D01*
X3276670Y3368809D02*
X3252860Y3392619D01*
X3252860Y3392619D02*
X3229050Y3404524D01*
X3229050Y3404524D02*
X3181431Y3416428D01*
X3181431Y3416428D02*
X3145717Y3416428D01*
X3145717Y3416428D02*
X3098098Y3404524D01*
X3098098Y3404524D02*
X3074289Y3392619D01*
X3074289Y3392619D02*
X3050479Y3368809D01*
X3050479Y3368809D02*
X3038574Y3333095D01*
X3038574Y3333095D02*
X3038574Y3309286D01*
X3038574Y3309286D02*
X3050479Y3273571D01*
X3050479Y3273571D02*
X3062384Y3261667D01*
X3038574Y3178333D02*
X3038574Y3023571D01*
X3038574Y3023571D02*
X3133812Y3106905D01*
X3133812Y3106905D02*
X3133812Y3071190D01*
X3133812Y3071190D02*
X3145717Y3047381D01*
X3145717Y3047381D02*
X3157622Y3035476D01*
X3157622Y3035476D02*
X3181431Y3023571D01*
X3181431Y3023571D02*
X3240955Y3023571D01*
X3240955Y3023571D02*
X3264765Y3035476D01*
X3264765Y3035476D02*
X3276670Y3047381D01*
X3276670Y3047381D02*
X3288574Y3071190D01*
X3288574Y3071190D02*
X3288574Y3142619D01*
X3288574Y3142619D02*
X3276670Y3166428D01*
X3276670Y3166428D02*
X3264765Y3178333D01*
D10*
X7031304Y5384915D02*
X7031304Y4575392D01*
X7031304Y4575392D02*
X6983685Y4480154D01*
X6983685Y4480154D02*
X6936066Y4432534D01*
X6936066Y4432534D02*
X6840828Y4384915D01*
X6840828Y4384915D02*
X6650352Y4384915D01*
X6650352Y4384915D02*
X6555114Y4432534D01*
X6555114Y4432534D02*
X6507495Y4480154D01*
X6507495Y4480154D02*
X6459876Y4575392D01*
X6459876Y4575392D02*
X6459876Y5384915D01*
X6078923Y5384915D02*
X5459876Y5384915D01*
X5459876Y5384915D02*
X5793209Y5003963D01*
X5793209Y5003963D02*
X5650352Y5003963D01*
X5650352Y5003963D02*
X5555114Y4956344D01*
X5555114Y4956344D02*
X5507495Y4908725D01*
X5507495Y4908725D02*
X5459876Y4813487D01*
X5459876Y4813487D02*
X5459876Y4575392D01*
X5459876Y4575392D02*
X5507495Y4480154D01*
X5507495Y4480154D02*
X5555114Y4432534D01*
X5555114Y4432534D02*
X5650352Y4384915D01*
X5650352Y4384915D02*
X5936066Y4384915D01*
X5936066Y4384915D02*
X6031304Y4432534D01*
X6031304Y4432534D02*
X6078923Y4480154D01*
D13*
X3264765Y6846667D02*
X3276670Y6858571D01*
X3276670Y6858571D02*
X3288574Y6894286D01*
X3288574Y6894286D02*
X3288574Y6918095D01*
X3288574Y6918095D02*
X3276670Y6953809D01*
X3276670Y6953809D02*
X3252860Y6977619D01*
X3252860Y6977619D02*
X3229050Y6989524D01*
X3229050Y6989524D02*
X3181431Y7001428D01*
X3181431Y7001428D02*
X3145717Y7001428D01*
X3145717Y7001428D02*
X3098098Y6989524D01*
X3098098Y6989524D02*
X3074289Y6977619D01*
X3074289Y6977619D02*
X3050479Y6953809D01*
X3050479Y6953809D02*
X3038574Y6918095D01*
X3038574Y6918095D02*
X3038574Y6894286D01*
X3038574Y6894286D02*
X3050479Y6858571D01*
X3050479Y6858571D02*
X3062384Y6846667D01*
X3062384Y6751428D02*
X3050479Y6739524D01*
X3050479Y6739524D02*
X3038574Y6715714D01*
X3038574Y6715714D02*
X3038574Y6656190D01*
X3038574Y6656190D02*
X3050479Y6632381D01*
X3050479Y6632381D02*
X3062384Y6620476D01*
X3062384Y6620476D02*
X3086193Y6608571D01*
X3086193Y6608571D02*
X3110003Y6608571D01*
X3110003Y6608571D02*
X3145717Y6620476D01*
X3145717Y6620476D02*
X3288574Y6763333D01*
X3288574Y6763333D02*
X3288574Y6608571D01*
X9493200Y3263333D02*
X9369391Y3350000D01*
X9493200Y3411905D02*
X9233200Y3411905D01*
X9233200Y3411905D02*
X9233200Y3312857D01*
X9233200Y3312857D02*
X9245581Y3288095D01*
X9245581Y3288095D02*
X9257962Y3275714D01*
X9257962Y3275714D02*
X9282724Y3263333D01*
X9282724Y3263333D02*
X9319867Y3263333D01*
X9319867Y3263333D02*
X9344629Y3275714D01*
X9344629Y3275714D02*
X9357010Y3288095D01*
X9357010Y3288095D02*
X9369391Y3312857D01*
X9369391Y3312857D02*
X9369391Y3411905D01*
X9257962Y3164286D02*
X9245581Y3151905D01*
X9245581Y3151905D02*
X9233200Y3127143D01*
X9233200Y3127143D02*
X9233200Y3065238D01*
X9233200Y3065238D02*
X9245581Y3040476D01*
X9245581Y3040476D02*
X9257962Y3028095D01*
X9257962Y3028095D02*
X9282724Y3015714D01*
X9282724Y3015714D02*
X9307486Y3015714D01*
X9307486Y3015714D02*
X9344629Y3028095D01*
X9344629Y3028095D02*
X9493200Y3176667D01*
X9493200Y3176667D02*
X9493200Y3015714D01*
X9464765Y5116667D02*
X9476670Y5128571D01*
X9476670Y5128571D02*
X9488574Y5164286D01*
X9488574Y5164286D02*
X9488574Y5188095D01*
X9488574Y5188095D02*
X9476670Y5223809D01*
X9476670Y5223809D02*
X9452860Y5247619D01*
X9452860Y5247619D02*
X9429050Y5259524D01*
X9429050Y5259524D02*
X9381431Y5271428D01*
X9381431Y5271428D02*
X9345717Y5271428D01*
X9345717Y5271428D02*
X9298098Y5259524D01*
X9298098Y5259524D02*
X9274289Y5247619D01*
X9274289Y5247619D02*
X9250479Y5223809D01*
X9250479Y5223809D02*
X9238574Y5188095D01*
X9238574Y5188095D02*
X9238574Y5164286D01*
X9238574Y5164286D02*
X9250479Y5128571D01*
X9250479Y5128571D02*
X9262384Y5116667D01*
X9488574Y4878571D02*
X9488574Y5021428D01*
X9488574Y4950000D02*
X9238574Y4950000D01*
X9238574Y4950000D02*
X9274289Y4973809D01*
X9274289Y4973809D02*
X9298098Y4997619D01*
X9298098Y4997619D02*
X9310003Y5021428D01*
D14*
%TO.C,Q3*%
X350000Y4250000D02*
X1950000Y4250000D01*
X350000Y7850000D02*
X350000Y4250000D01*
X1950000Y4250000D02*
X1950000Y7450000D01*
X1550000Y7850000D02*
X1950000Y7450000D01*
X1550000Y7850000D02*
X350000Y7850000D01*
%TO.C,Q2*%
X1950000Y3950000D02*
X350000Y3950000D01*
X1950000Y350000D02*
X1950000Y3950000D01*
X350000Y3950000D02*
X350000Y750000D01*
X750000Y350000D02*
X350000Y750000D01*
X750000Y350000D02*
X1950000Y350000D01*
%TO.C,Q1*%
X11750000Y3950000D02*
X10150000Y3950000D01*
X11750000Y350000D02*
X11750000Y3950000D01*
X10150000Y3950000D02*
X10150000Y750000D01*
X10550000Y350000D02*
X10150000Y750000D01*
X10550000Y350000D02*
X11750000Y350000D01*
%TO.C,Q4*%
X10150000Y4250000D02*
X11750000Y4250000D01*
X10150000Y7850000D02*
X10150000Y4250000D01*
X11750000Y4250000D02*
X11750000Y7450000D01*
X11350000Y7850000D02*
X11750000Y7450000D01*
X11350000Y7850000D02*
X10150000Y7850000D01*
%TO.C,U2*%
X2400000Y5525000D02*
X3400000Y5525000D01*
X2400000Y4525000D02*
X2400000Y5525000D01*
X3150000Y4525000D02*
X2400000Y4525000D01*
X3400000Y5525000D02*
X3400000Y4775000D01*
X3400000Y4775000D02*
X3150000Y4525000D01*
%TO.C,C3*%
X2925000Y3720000D02*
X3425000Y3720000D01*
X2925000Y2720000D02*
X2925000Y3720000D01*
X3425000Y3720000D02*
X3425000Y2720000D01*
X3425000Y2720000D02*
X2925000Y2720000D01*
%TO.C,U3*%
X4269400Y6839734D02*
X8269400Y6839734D01*
X4269400Y3839734D02*
X4269400Y6839734D01*
X5269400Y2839734D02*
X4269400Y3839734D01*
X8269400Y6839734D02*
X8269400Y2839734D01*
X8269400Y2839734D02*
X5269400Y2839734D01*
%TO.C,C2*%
X2925000Y7305000D02*
X3425000Y7305000D01*
X2925000Y6305000D02*
X2925000Y7305000D01*
X3425000Y7305000D02*
X3425000Y6305000D01*
X3425000Y6305000D02*
X2925000Y6305000D01*
%TO.C,R2*%
X9105000Y3745000D02*
X9645000Y3745000D01*
X9105000Y2695000D02*
X9105000Y3745000D01*
X9645000Y3745000D02*
X9645000Y2695000D01*
X9645000Y2695000D02*
X9105000Y2695000D01*
%TO.C,C1*%
X9125000Y5575000D02*
X9625000Y5575000D01*
X9125000Y4575000D02*
X9125000Y5575000D01*
X9625000Y5575000D02*
X9625000Y4575000D01*
X9625000Y4575000D02*
X9125000Y4575000D01*
%TD*%
M02*
